<mxfile host="Electron" agent="Mozilla/5.0 (Macintosh; Intel Mac OS X 10_15_7) AppleWebKit/537.36 (KHTML, like Gecko) draw.io/25.0.2 Chrome/128.0.6613.186 Electron/32.2.5 Safari/537.36" version="25.0.2">
  <diagram name="第 1 页" id="JzUMqz-kVR1O4EAyw5JA">
    <mxGraphModel dx="906" dy="682" grid="1" gridSize="10" guides="1" tooltips="1" connect="1" arrows="1" fold="1" page="1" pageScale="1" pageWidth="827" pageHeight="1169" math="0" shadow="0">
      <root>
        <mxCell id="0" />
        <mxCell id="1" parent="0" />
        <mxCell id="vJkOGQgTTchx4MkxZoRq-4" value="" style="ellipse;html=1;shape=startState;fillColor=#000000;strokeColor=#ff0000;" vertex="1" parent="1">
          <mxGeometry x="140" y="305" width="30" height="30" as="geometry" />
        </mxCell>
        <mxCell id="vJkOGQgTTchx4MkxZoRq-5" value="" style="edgeStyle=orthogonalEdgeStyle;html=1;verticalAlign=bottom;endArrow=open;endSize=8;strokeColor=#ff0000;rounded=0;entryX=0;entryY=0.5;entryDx=0;entryDy=0;" edge="1" source="vJkOGQgTTchx4MkxZoRq-4" parent="1" target="vJkOGQgTTchx4MkxZoRq-8">
          <mxGeometry relative="1" as="geometry">
            <mxPoint x="250" y="235" as="targetPoint" />
          </mxGeometry>
        </mxCell>
        <mxCell id="vJkOGQgTTchx4MkxZoRq-6" value="frame" style="shape=umlFrame;whiteSpace=wrap;html=1;pointerEvents=0;" vertex="1" parent="1">
          <mxGeometry x="114" y="130" width="686" height="440" as="geometry" />
        </mxCell>
        <mxCell id="vJkOGQgTTchx4MkxZoRq-11" style="edgeStyle=orthogonalEdgeStyle;rounded=0;orthogonalLoop=1;jettySize=auto;html=1;entryX=0;entryY=0.5;entryDx=0;entryDy=0;exitX=0.5;exitY=0;exitDx=0;exitDy=0;" edge="1" parent="1" source="vJkOGQgTTchx4MkxZoRq-8" target="vJkOGQgTTchx4MkxZoRq-9">
          <mxGeometry relative="1" as="geometry" />
        </mxCell>
        <mxCell id="vJkOGQgTTchx4MkxZoRq-8" value="Green(go)" style="rounded=1;whiteSpace=wrap;html=1;" vertex="1" parent="1">
          <mxGeometry x="260" y="290" width="120" height="60" as="geometry" />
        </mxCell>
        <mxCell id="vJkOGQgTTchx4MkxZoRq-12" style="edgeStyle=orthogonalEdgeStyle;rounded=0;orthogonalLoop=1;jettySize=auto;html=1;entryX=0.5;entryY=0;entryDx=0;entryDy=0;" edge="1" parent="1" source="vJkOGQgTTchx4MkxZoRq-9" target="vJkOGQgTTchx4MkxZoRq-10">
          <mxGeometry relative="1" as="geometry" />
        </mxCell>
        <mxCell id="vJkOGQgTTchx4MkxZoRq-15" value="after short time" style="edgeLabel;html=1;align=center;verticalAlign=middle;resizable=0;points=[];" vertex="1" connectable="0" parent="vJkOGQgTTchx4MkxZoRq-12">
          <mxGeometry x="0.0545" y="-2" relative="1" as="geometry">
            <mxPoint y="-12" as="offset" />
          </mxGeometry>
        </mxCell>
        <mxCell id="vJkOGQgTTchx4MkxZoRq-9" value="yellow(wait)" style="rounded=1;whiteSpace=wrap;html=1;" vertex="1" parent="1">
          <mxGeometry x="430" y="180" width="120" height="60" as="geometry" />
        </mxCell>
        <mxCell id="vJkOGQgTTchx4MkxZoRq-13" style="edgeStyle=orthogonalEdgeStyle;rounded=0;orthogonalLoop=1;jettySize=auto;html=1;entryX=0.5;entryY=1;entryDx=0;entryDy=0;exitX=0.5;exitY=1;exitDx=0;exitDy=0;" edge="1" parent="1" source="vJkOGQgTTchx4MkxZoRq-10" target="vJkOGQgTTchx4MkxZoRq-8">
          <mxGeometry relative="1" as="geometry">
            <mxPoint x="690" y="380" as="sourcePoint" />
            <mxPoint x="320" y="380" as="targetPoint" />
            <Array as="points">
              <mxPoint x="690" y="430" />
              <mxPoint x="320" y="430" />
            </Array>
          </mxGeometry>
        </mxCell>
        <mxCell id="vJkOGQgTTchx4MkxZoRq-10" value="Red(stop)" style="rounded=1;whiteSpace=wrap;html=1;" vertex="1" parent="1">
          <mxGeometry x="630" y="290" width="120" height="60" as="geometry" />
        </mxCell>
        <mxCell id="vJkOGQgTTchx4MkxZoRq-16" value="after fixed time" style="text;html=1;align=center;verticalAlign=middle;resizable=0;points=[];autosize=1;strokeColor=none;fillColor=none;" vertex="1" parent="1">
          <mxGeometry x="440" y="398" width="100" height="30" as="geometry" />
        </mxCell>
        <mxCell id="vJkOGQgTTchx4MkxZoRq-17" value="after fixed time" style="text;html=1;align=center;verticalAlign=middle;resizable=0;points=[];autosize=1;strokeColor=none;fillColor=none;" vertex="1" parent="1">
          <mxGeometry x="290" y="180" width="100" height="30" as="geometry" />
        </mxCell>
      </root>
    </mxGraphModel>
  </diagram>
</mxfile>
